<svg width="15" height="13" viewBox="0 0 15 13" fill="none" xmlns="http://www.w3.org/2000/svg">
<path d="M9.44761 1.85243C8.06357 1.23365 6.9885 0.753011 6.11539 0.441204C5.239 0.128229 4.47826 -0.0485166 3.73855 0.011688C2.56454 0.107238 1.49578 0.58421 0.799287 1.32654C0.359354 1.79543 0.176181 2.39724 0.0879101 3.14229C-7.14424e-06 3.88437 -3.99165e-06 4.84616 5.6764e-08 6.08309V6.13464C-4.0869e-06 7.37157 -7.31234e-06 8.33337 0.0879098 9.07544C0.17618 9.8205 0.359354 10.4223 0.799287 10.8912C1.49578 11.6335 2.56454 12.1105 3.73855 12.206C4.47826 12.2663 5.239 12.0895 6.11538 11.7765C6.98849 11.4647 8.06355 10.9841 9.44758 10.3653L9.50376 10.3402C10.8877 9.72148 11.9628 9.24082 12.7482 8.81115C13.5358 8.38025 14.1164 7.95737 14.4208 7.42791C14.9035 6.58841 14.9035 5.62932 14.4208 4.78982C14.1164 4.26036 13.5358 3.83749 12.7482 3.40658C11.9628 2.97691 10.8877 2.49626 9.50375 1.87753L9.44761 1.85243Z" fill="white"/>
</svg>
